<svg id="Nav" xmlns="http://www.w3.org/2000/svg" viewBox="0 0 1586.41 403.45"><defs><style>.cls-1{fill:#00aed7;}.cls-2{fill:none;stroke:#00aed7;stroke-miterlimit:10;}</style></defs><title>glue_footer</title><circle class="cls-1" cx="1416.25" cy="18.03" r="10.75"/><circle class="cls-1" cx="1399.24" cy="233.17" r="10.75"/><circle class="cls-1" cx="1288.23" cy="54.41" r="10.75"/><circle class="cls-1" cx="1243.8" cy="196.23" r="10.75"/><circle class="cls-1" cx="1191.65" cy="254.08" r="10.75"/><circle class="cls-1" cx="1149.25" cy="94.41" r="10.75"/><circle class="cls-1" cx="992.09" cy="138.55" r="10.75"/><circle class="cls-1" cx="1030.94" cy="10.75" r="10.75"/><circle class="cls-1" cx="1041.69" cy="172.46" r="10.75"/><circle class="cls-1" cx="951.16" cy="196.23" r="10.75"/><circle class="cls-1" cx="791.14" cy="123.42" r="10.75"/><circle class="cls-1" cx="633.34" cy="28.62" r="10.75"/><circle class="cls-1" cx="506.53" cy="162.03" r="10.75"/><circle class="cls-1" cx="499.73" cy="260.34" r="10.75"/><circle class="cls-1" cx="633.52" cy="220.71" r="10.75"/><circle class="cls-1" cx="377.02" cy="67.09" r="10.75"/><circle class="cls-1" cx="341.76" cy="238.47" r="10.75"/><circle class="cls-1" cx="217.62" cy="137.91" r="10.75"/><circle class="cls-1" cx="113.95" cy="88.59" r="10.75"/><circle class="cls-1" cx="124.7" cy="260.34" r="10.75"/><line class="cls-2" x1="217.62" y1="137.91" x2="375.18" y2="65.96"/><line class="cls-2" x1="506.53" y1="160.96" x2="375.18" y2="65.96"/><line class="cls-2" x1="1399.3" y1="232.43" x2="1508.29" y2="267.39"/><polyline class="cls-2" points="791.14 123.42 854.01 339.57 951.34 195.97 1040.76 171.81 1064.15 291.48 1191.65 254.08"/><polyline class="cls-2" points="1.97 332.31 124.98 259.97 146.46 328.82 341.76 238.47 506.53 160.96 499.73 260.34"/><line class="cls-2" x1="1.97" y1="279.63" x2="146.46" y2="276.15"/><line class="cls-2" x1="341.76" y1="238.47" x2="506.53" y2="160.96"/><line class="cls-2" x1="633.34" y1="222.79" x2="506.53" y2="160.96"/><line class="cls-2" x1="341.76" y1="238.47" x2="499.73" y2="260.34"/><line class="cls-2" x1="506.53" y1="160.96" x2="791.14" y2="123.42"/><line class="cls-2" x1="951.34" y1="195.97" x2="791.14" y2="123.42"/><line class="cls-2" x1="854.01" y1="339.57" x2="633.34" y2="222.79"/><line class="cls-2" x1="1191.65" y1="254.08" x2="1040.76" y2="171.81"/><line class="cls-2" x1="1147.43" y1="94.41" x2="1040.76" y2="171.81"/><line class="cls-2" x1="1399.3" y1="232.43" x2="1191.65" y2="254.08"/><path class="cls-2" d="M2651,5998.25" transform="translate(-1503.54 -5903.83)"/><line class="cls-2" x1="506.53" y1="160.96" x2="633.34" y2="28.62"/><line class="cls-2" x1="791.14" y1="123.42" x2="633.34" y2="28.62"/><path class="cls-2" d="M2294.68,6027.25" transform="translate(-1503.54 -5903.83)"/><path class="cls-2" d="M2651,5998.25" transform="translate(-1503.54 -5903.83)"/><path class="cls-2" d="M2544.3,6075.65" transform="translate(-1503.54 -5903.83)"/><line class="cls-2" x1="951.34" y1="195.97" x2="1064.15" y2="291.48"/><line class="cls-2" x1="854.01" y1="286.9" x2="1064.15" y2="238.81"/><line class="cls-2" x1="1.97" y1="332.31" x2="1.97" y2="167.17"/><line class="cls-2" x1="124.98" y1="259.97" x2="1.97" y2="167.17"/><polyline class="cls-2" points="217.62 137.91 1.97 167.17 113.95 88.58"/><line class="cls-2" x1="951.34" y1="195.97" x2="992.82" y2="138.38"/><line class="cls-2" x1="791.14" y1="123.42" x2="992.82" y2="138.38"/><line class="cls-2" x1="1040.76" y1="171.81" x2="992.82" y2="138.38"/><line class="cls-2" x1="1416.39" y1="17.99" x2="992.82" y2="138.35"/><line class="cls-2" x1="1399.3" y1="232.43" x2="1288.23" y2="54.41"/><line class="cls-2" x1="1416.39" y1="16.19" x2="1399.3" y2="232.43"/><line class="cls-2" x1="1508.29" y1="267.39" x2="1416.39" y2="16.19"/><line class="cls-2" x1="113.95" y1="88.59" x2="217.62" y2="137.91"/><line class="cls-2" x1="341.76" y1="238.47" x2="217.62" y2="137.91"/><line class="cls-2" x1="502.72" y1="160.96" x2="217.62" y2="137.91"/><line class="cls-2" x1="124.98" y1="259.97" x2="217.62" y2="137.91"/><line class="cls-2" x1="341.76" y1="238.47" x2="124.98" y2="259.97"/><line class="cls-2" x1="1191.65" y1="254.08" x2="1147.43" y2="94.41"/><line class="cls-2" x1="1242.83" y1="197.31" x2="1147.43" y2="94.41"/><line class="cls-2" x1="1243.8" y1="196.23" x2="1288.23" y2="54.41"/><line class="cls-2" x1="791.14" y1="123.42" x2="1030.94" y2="10.75"/><line class="cls-2" x1="1191.65" y1="254.08" x2="1243.8" y2="196.23"/><line class="cls-2" x1="1399.3" y1="232.43" x2="1243.8" y2="196.23"/><line class="cls-2" x1="341.76" y1="238.47" x2="393.18" y2="403.15"/><path class="cls-2" d="M1834.54,6155.83" transform="translate(-1503.54 -5903.83)"/><line class="cls-2" x1="393.18" y1="403.15" x2="499.73" y2="260.34"/><path class="cls-2" d="M2567.69,6142.64" transform="translate(-1503.54 -5903.83)"/><line class="cls-2" x1="1114.47" y1="272.4" x2="1064.15" y2="238.81"/><path class="cls-2" d="M2618,6176.23" transform="translate(-1503.54 -5903.83)"/><line class="cls-2" x1="1191.65" y1="254.08" x2="1114.47" y2="325.07"/><path class="cls-2" d="M2618,6176.23" transform="translate(-1503.54 -5903.83)"/><path class="cls-2" d="M2618,6176.23" transform="translate(-1503.54 -5903.83)"/><path class="cls-2" d="M2902.83,6139.58" transform="translate(-1503.54 -5903.83)"/><path class="cls-2" d="M2695.18,6157.92" transform="translate(-1503.54 -5903.83)"/><path class="cls-2" d="M3011.82,6171.22" transform="translate(-1503.54 -5903.83)"/><path class="cls-2" d="M3011.82,6171.22" transform="translate(-1503.54 -5903.83)"/><path class="cls-2" d="M3010.84,6172.29" transform="translate(-1503.54 -5903.83)"/><line class="cls-2" x1="1508.29" y1="267.39" x2="1586.04" y2="198.94"/><line class="cls-2" x1="1416.39" y1="16.19" x2="1586.04" y2="198.94"/><path class="cls-2" d="M3010.84,6172.29" transform="translate(-1503.54 -5903.83)"/><line class="cls-2" x1="499.73" y1="260.34" x2="633.34" y2="222.04"/><line class="cls-2" x1="791.14" y1="123.42" x2="633.34" y2="222.04"/><path class="cls-2" d="M2651,5998.25" transform="translate(-1503.54 -5903.83)"/><line class="cls-2" x1="1030.94" y1="10.75" x2="1147.43" y2="94.41"/><line class="cls-2" x1="992.82" y1="138.35" x2="1030.94" y2="10.75"/></svg>